<?xml version="1.0" encoding="UTF-8" standalone="no"?>
<!DOCTYPE svg PUBLIC "-//W3C//DTD SVG 1.1//EN"
 "http://www.w3.org/Graphics/SVG/1.1/DTD/svg11.dtd">
<!-- Generated by graphviz version 2.47.3 (20210619.1520)
 -->
<!-- Title: dependencies Pages: 1 -->
<svg width="1090pt" height="247pt"
 viewBox="0.00 0.00 1090.00 246.80" xmlns="http://www.w3.org/2000/svg" xmlns:xlink="http://www.w3.org/1999/xlink">
<g id="graph0" class="graph" transform="scale(1 1) rotate(0) translate(4 242.8)">
<title>dependencies</title>
<polygon fill="white" stroke="transparent" points="-4,4 -4,-242.8 1086,-242.8 1086,4 -4,4"/>
<text text-anchor="middle" x="541" y="-8.2" font-family="sans-serif" font-size="14.00">dependencies</text>
<g id="clust1" class="cluster">
<title>cluster_AppModule</title>
<polygon fill="none" stroke="black" stroke-dasharray="1,5" points="8,-32.8 8,-230.8 1074,-230.8 1074,-32.8 8,-32.8"/>
</g>
<g id="clust11" class="cluster">
<title>cluster_AppModule_bootstrap</title>
<polygon fill="none" stroke="black" points="487,-170.8 487,-222.8 611,-222.8 611,-170.8 487,-170.8"/>
</g>
<g id="clust9" class="cluster">
<title>cluster_AppModule_imports</title>
<polygon fill="none" stroke="black" points="922,-40.8 922,-92.8 1066,-92.8 1066,-40.8 922,-40.8"/>
</g>
<g id="clust2" class="cluster">
<title>cluster_AppModule_declarations</title>
<polygon fill="none" stroke="black" points="16,-40.8 16,-92.8 914,-92.8 914,-40.8 16,-40.8"/>
</g>
<!-- AppComponent -->
<g id="node1" class="node">
<title>AppComponent</title>
<polygon fill="#ffffb3" stroke="black" points="905.94,-84.8 800.06,-84.8 800.06,-48.8 905.94,-48.8 905.94,-84.8"/>
<text text-anchor="middle" x="853" y="-62.6" font-family="Times,serif" font-size="14.00">AppComponent</text>
</g>
<!-- AppModule -->
<g id="node7" class="node">
<title>AppModule</title>
<polygon fill="#8dd3c7" stroke="black" points="590.66,-149.8 587.66,-153.8 566.66,-153.8 563.66,-149.8 507.34,-149.8 507.34,-113.8 590.66,-113.8 590.66,-149.8"/>
<text text-anchor="middle" x="549" y="-127.6" font-family="Times,serif" font-size="14.00">AppModule</text>
</g>
<!-- AppComponent&#45;&gt;AppModule -->
<g id="edge1" class="edge">
<title>AppComponent&#45;&gt;AppModule</title>
<path fill="none" stroke="black" d="M853,-84.91C853,-104.14 853,-131.8 853,-131.8 853,-131.8 600.95,-131.8 600.95,-131.8"/>
<polygon fill="black" stroke="black" points="600.95,-128.3 590.95,-131.8 600.95,-135.3 600.95,-128.3"/>
</g>
<!-- CreateUserComponent -->
<g id="node2" class="node">
<title>CreateUserComponent</title>
<polygon fill="#ffffb3" stroke="black" points="782.29,-84.8 637.71,-84.8 637.71,-48.8 782.29,-48.8 782.29,-84.8"/>
<text text-anchor="middle" x="710" y="-62.6" font-family="Times,serif" font-size="14.00">CreateUserComponent</text>
</g>
<!-- CreateUserComponent&#45;&gt;AppModule -->
<g id="edge2" class="edge">
<title>CreateUserComponent&#45;&gt;AppModule</title>
<path fill="none" stroke="black" d="M710,-84.83C710,-101.2 710,-122.8 710,-122.8 710,-122.8 600.88,-122.8 600.88,-122.8"/>
<polygon fill="black" stroke="black" points="600.88,-119.3 590.88,-122.8 600.88,-126.3 600.88,-119.3"/>
</g>
<!-- DashboardComponent -->
<g id="node3" class="node">
<title>DashboardComponent</title>
<polygon fill="#ffffb3" stroke="black" points="619.97,-84.8 478.03,-84.8 478.03,-48.8 619.97,-48.8 619.97,-84.8"/>
<text text-anchor="middle" x="549" y="-62.6" font-family="Times,serif" font-size="14.00">DashboardComponent</text>
</g>
<!-- DashboardComponent&#45;&gt;AppModule -->
<g id="edge3" class="edge">
<title>DashboardComponent&#45;&gt;AppModule</title>
<path fill="none" stroke="black" d="M549,-84.91C549,-84.91 549,-103.79 549,-103.79"/>
<polygon fill="black" stroke="black" points="545.5,-103.79 549,-113.79 552.5,-103.79 545.5,-103.79"/>
</g>
<!-- LoginComponent -->
<g id="node4" class="node">
<title>LoginComponent</title>
<polygon fill="#ffffb3" stroke="black" points="460.28,-84.8 345.72,-84.8 345.72,-48.8 460.28,-48.8 460.28,-84.8"/>
<text text-anchor="middle" x="403" y="-62.6" font-family="Times,serif" font-size="14.00">LoginComponent</text>
</g>
<!-- LoginComponent&#45;&gt;AppModule -->
<g id="edge4" class="edge">
<title>LoginComponent&#45;&gt;AppModule</title>
<path fill="none" stroke="black" d="M403,-84.83C403,-101.2 403,-122.8 403,-122.8 403,-122.8 497.16,-122.8 497.16,-122.8"/>
<polygon fill="black" stroke="black" points="497.16,-126.3 507.16,-122.8 497.16,-119.3 497.16,-126.3"/>
</g>
<!-- UpdateUserComponent -->
<g id="node5" class="node">
<title>UpdateUserComponent</title>
<polygon fill="#ffffb3" stroke="black" points="328.19,-84.8 179.81,-84.8 179.81,-48.8 328.19,-48.8 328.19,-84.8"/>
<text text-anchor="middle" x="254" y="-62.6" font-family="Times,serif" font-size="14.00">UpdateUserComponent</text>
</g>
<!-- UpdateUserComponent&#45;&gt;AppModule -->
<g id="edge5" class="edge">
<title>UpdateUserComponent&#45;&gt;AppModule</title>
<path fill="none" stroke="black" d="M254,-84.91C254,-104.14 254,-131.8 254,-131.8 254,-131.8 497.05,-131.8 497.05,-131.8"/>
<polygon fill="black" stroke="black" points="497.05,-135.3 507.05,-131.8 497.05,-128.3 497.05,-135.3"/>
</g>
<!-- ViewUserComponent -->
<g id="node6" class="node">
<title>ViewUserComponent</title>
<polygon fill="#ffffb3" stroke="black" points="162.08,-84.8 23.92,-84.8 23.92,-48.8 162.08,-48.8 162.08,-84.8"/>
<text text-anchor="middle" x="93" y="-62.6" font-family="Times,serif" font-size="14.00">ViewUserComponent</text>
</g>
<!-- ViewUserComponent&#45;&gt;AppModule -->
<g id="edge6" class="edge">
<title>ViewUserComponent&#45;&gt;AppModule</title>
<path fill="none" stroke="black" d="M93,-85.09C93,-107.01 93,-140.8 93,-140.8 93,-140.8 497.32,-140.8 497.32,-140.8"/>
<polygon fill="black" stroke="black" points="497.32,-144.3 507.32,-140.8 497.32,-137.3 497.32,-144.3"/>
</g>
<!-- AppComponent  -->
<g id="node9" class="node">
<title>AppComponent </title>
<polygon fill="#80b1d3" stroke="black" points="603.44,-214.8 494.56,-214.8 494.56,-178.8 603.44,-178.8 603.44,-214.8"/>
<text text-anchor="middle" x="549" y="-192.6" font-family="Times,serif" font-size="14.00">AppComponent </text>
</g>
<!-- AppModule&#45;&gt;AppComponent  -->
<g id="edge8" class="edge">
<title>AppModule&#45;&gt;AppComponent </title>
<path fill="none" stroke="black" stroke-dasharray="1,5" d="M549,-149.91C549,-149.91 549,-168.79 549,-168.79"/>
<polygon fill="black" stroke="black" points="545.5,-168.79 549,-178.79 552.5,-168.79 545.5,-168.79"/>
</g>
<!-- AppRoutingModule -->
<g id="node8" class="node">
<title>AppRoutingModule</title>
<polygon fill="#8dd3c7" stroke="black" points="1058.27,-84.8 1055.27,-88.8 1034.27,-88.8 1031.27,-84.8 929.73,-84.8 929.73,-48.8 1058.27,-48.8 1058.27,-84.8"/>
<text text-anchor="middle" x="994" y="-62.6" font-family="Times,serif" font-size="14.00">AppRoutingModule</text>
</g>
<!-- AppRoutingModule&#45;&gt;AppModule -->
<g id="edge7" class="edge">
<title>AppRoutingModule&#45;&gt;AppModule</title>
<path fill="none" stroke="black" d="M994,-85.09C994,-107.01 994,-140.8 994,-140.8 994,-140.8 600.86,-140.8 600.86,-140.8"/>
<polygon fill="black" stroke="black" points="600.86,-137.3 590.86,-140.8 600.86,-144.3 600.86,-137.3"/>
</g>
</g>
</svg>
