<?xml version="1.0" encoding="UTF-8" standalone="no"?>
<!DOCTYPE svg PUBLIC "-//W3C//DTD SVG 1.1//EN"
 "http://www.w3.org/Graphics/SVG/1.1/DTD/svg11.dtd">
<!-- Generated by graphviz version 2.47.3 (20210619.1520)
 -->
<!-- Title: dependencies Pages: 1 -->
<svg width="1244pt" height="247pt"
 viewBox="0.00 0.00 1244.00 246.80" xmlns="http://www.w3.org/2000/svg" xmlns:xlink="http://www.w3.org/1999/xlink">
<g id="graph0" class="graph" transform="scale(1 1) rotate(0) translate(4 242.8)">
<title>dependencies</title>
<polygon fill="white" stroke="transparent" points="-4,4 -4,-242.8 1240,-242.8 1240,4 -4,4"/>
<text text-anchor="middle" x="618" y="-8.2" font-family="sans-serif" font-size="14.00">dependencies</text>
<g id="clust1" class="cluster">
<title>cluster_AppModule</title>
<polygon fill="none" stroke="black" stroke-dasharray="1,5" points="8,-32.8 8,-230.8 1228,-230.8 1228,-32.8 8,-32.8"/>
</g>
<g id="clust10" class="cluster">
<title>cluster_AppModule_imports</title>
<polygon fill="none" stroke="black" points="1076,-40.8 1076,-92.8 1220,-92.8 1220,-40.8 1076,-40.8"/>
</g>
<g id="clust12" class="cluster">
<title>cluster_AppModule_bootstrap</title>
<polygon fill="none" stroke="black" points="568,-170.8 568,-222.8 692,-222.8 692,-170.8 568,-170.8"/>
</g>
<g id="clust2" class="cluster">
<title>cluster_AppModule_declarations</title>
<polygon fill="none" stroke="black" points="16,-40.8 16,-92.8 1068,-92.8 1068,-40.8 16,-40.8"/>
</g>
<!-- AppComponent -->
<g id="node1" class="node">
<title>AppComponent</title>
<polygon fill="#ffffb3" stroke="black" points="1059.94,-84.8 954.06,-84.8 954.06,-48.8 1059.94,-48.8 1059.94,-84.8"/>
<text text-anchor="middle" x="1007" y="-62.6" font-family="Times,serif" font-size="14.00">AppComponent</text>
</g>
<!-- AppModule -->
<g id="node8" class="node">
<title>AppModule</title>
<polygon fill="#8dd3c7" stroke="black" points="671.66,-149.8 668.66,-153.8 647.66,-153.8 644.66,-149.8 588.34,-149.8 588.34,-113.8 671.66,-113.8 671.66,-149.8"/>
<text text-anchor="middle" x="630" y="-127.6" font-family="Times,serif" font-size="14.00">AppModule</text>
</g>
<!-- AppComponent&#45;&gt;AppModule -->
<g id="edge1" class="edge">
<title>AppComponent&#45;&gt;AppModule</title>
<path fill="none" stroke="black" d="M1007,-84.91C1007,-104.14 1007,-131.8 1007,-131.8 1007,-131.8 681.79,-131.8 681.79,-131.8"/>
<polygon fill="black" stroke="black" points="681.79,-128.3 671.79,-131.8 681.79,-135.3 681.79,-128.3"/>
</g>
<!-- CreateUserComponent -->
<g id="node2" class="node">
<title>CreateUserComponent</title>
<polygon fill="#ffffb3" stroke="black" points="936.29,-84.8 791.71,-84.8 791.71,-48.8 936.29,-48.8 936.29,-84.8"/>
<text text-anchor="middle" x="864" y="-62.6" font-family="Times,serif" font-size="14.00">CreateUserComponent</text>
</g>
<!-- CreateUserComponent&#45;&gt;AppModule -->
<g id="edge2" class="edge">
<title>CreateUserComponent&#45;&gt;AppModule</title>
<path fill="none" stroke="black" d="M864,-84.83C864,-101.2 864,-122.8 864,-122.8 864,-122.8 681.83,-122.8 681.83,-122.8"/>
<polygon fill="black" stroke="black" points="681.83,-119.3 671.83,-122.8 681.83,-126.3 681.83,-119.3"/>
</g>
<!-- DashboardComponent -->
<g id="node3" class="node">
<title>DashboardComponent</title>
<polygon fill="#ffffb3" stroke="black" points="773.97,-84.8 632.03,-84.8 632.03,-48.8 773.97,-48.8 773.97,-84.8"/>
<text text-anchor="middle" x="703" y="-62.6" font-family="Times,serif" font-size="14.00">DashboardComponent</text>
</g>
<!-- DashboardComponent&#45;&gt;AppModule -->
<g id="edge3" class="edge">
<title>DashboardComponent&#45;&gt;AppModule</title>
<path fill="none" stroke="black" d="M651.92,-84.91C651.92,-84.91 651.92,-103.79 651.92,-103.79"/>
<polygon fill="black" stroke="black" points="648.42,-103.79 651.92,-113.79 655.42,-103.79 648.42,-103.79"/>
</g>
<!-- LoginComponent -->
<g id="node4" class="node">
<title>LoginComponent</title>
<polygon fill="#ffffb3" stroke="black" points="614.28,-84.8 499.72,-84.8 499.72,-48.8 614.28,-48.8 614.28,-84.8"/>
<text text-anchor="middle" x="557" y="-62.6" font-family="Times,serif" font-size="14.00">LoginComponent</text>
</g>
<!-- LoginComponent&#45;&gt;AppModule -->
<g id="edge4" class="edge">
<title>LoginComponent&#45;&gt;AppModule</title>
<path fill="none" stroke="black" d="M601.28,-84.91C601.28,-84.91 601.28,-103.79 601.28,-103.79"/>
<polygon fill="black" stroke="black" points="597.78,-103.79 601.28,-113.79 604.78,-103.79 597.78,-103.79"/>
</g>
<!-- UpdateUserComponent -->
<g id="node5" class="node">
<title>UpdateUserComponent</title>
<polygon fill="#ffffb3" stroke="black" points="482.19,-84.8 333.81,-84.8 333.81,-48.8 482.19,-48.8 482.19,-84.8"/>
<text text-anchor="middle" x="408" y="-62.6" font-family="Times,serif" font-size="14.00">UpdateUserComponent</text>
</g>
<!-- UpdateUserComponent&#45;&gt;AppModule -->
<g id="edge5" class="edge">
<title>UpdateUserComponent&#45;&gt;AppModule</title>
<path fill="none" stroke="black" d="M408,-84.83C408,-101.2 408,-122.8 408,-122.8 408,-122.8 578.24,-122.8 578.24,-122.8"/>
<polygon fill="black" stroke="black" points="578.24,-126.3 588.24,-122.8 578.24,-119.3 578.24,-126.3"/>
</g>
<!-- UserPageComponent -->
<g id="node6" class="node">
<title>UserPageComponent</title>
<polygon fill="#ffffb3" stroke="black" points="315.47,-84.8 180.53,-84.8 180.53,-48.8 315.47,-48.8 315.47,-84.8"/>
<text text-anchor="middle" x="248" y="-62.6" font-family="Times,serif" font-size="14.00">UserPageComponent</text>
</g>
<!-- UserPageComponent&#45;&gt;AppModule -->
<g id="edge6" class="edge">
<title>UserPageComponent&#45;&gt;AppModule</title>
<path fill="none" stroke="black" d="M248,-84.91C248,-104.14 248,-131.8 248,-131.8 248,-131.8 578.03,-131.8 578.03,-131.8"/>
<polygon fill="black" stroke="black" points="578.03,-135.3 588.03,-131.8 578.03,-128.3 578.03,-135.3"/>
</g>
<!-- ViewUserComponent -->
<g id="node7" class="node">
<title>ViewUserComponent</title>
<polygon fill="#ffffb3" stroke="black" points="162.08,-84.8 23.92,-84.8 23.92,-48.8 162.08,-48.8 162.08,-84.8"/>
<text text-anchor="middle" x="93" y="-62.6" font-family="Times,serif" font-size="14.00">ViewUserComponent</text>
</g>
<!-- ViewUserComponent&#45;&gt;AppModule -->
<g id="edge7" class="edge">
<title>ViewUserComponent&#45;&gt;AppModule</title>
<path fill="none" stroke="black" d="M93,-85.09C93,-107.01 93,-140.8 93,-140.8 93,-140.8 578.31,-140.8 578.31,-140.8"/>
<polygon fill="black" stroke="black" points="578.31,-144.3 588.31,-140.8 578.31,-137.3 578.31,-144.3"/>
</g>
<!-- AppComponent  -->
<g id="node10" class="node">
<title>AppComponent </title>
<polygon fill="#80b1d3" stroke="black" points="684.44,-214.8 575.56,-214.8 575.56,-178.8 684.44,-178.8 684.44,-214.8"/>
<text text-anchor="middle" x="630" y="-192.6" font-family="Times,serif" font-size="14.00">AppComponent </text>
</g>
<!-- AppModule&#45;&gt;AppComponent  -->
<g id="edge9" class="edge">
<title>AppModule&#45;&gt;AppComponent </title>
<path fill="none" stroke="black" stroke-dasharray="1,5" d="M630,-149.91C630,-149.91 630,-168.79 630,-168.79"/>
<polygon fill="black" stroke="black" points="626.5,-168.79 630,-178.79 633.5,-168.79 626.5,-168.79"/>
</g>
<!-- AppRoutingModule -->
<g id="node9" class="node">
<title>AppRoutingModule</title>
<polygon fill="#8dd3c7" stroke="black" points="1212.27,-84.8 1209.27,-88.8 1188.27,-88.8 1185.27,-84.8 1083.73,-84.8 1083.73,-48.8 1212.27,-48.8 1212.27,-84.8"/>
<text text-anchor="middle" x="1148" y="-62.6" font-family="Times,serif" font-size="14.00">AppRoutingModule</text>
</g>
<!-- AppRoutingModule&#45;&gt;AppModule -->
<g id="edge8" class="edge">
<title>AppRoutingModule&#45;&gt;AppModule</title>
<path fill="none" stroke="black" d="M1148,-85.09C1148,-107.01 1148,-140.8 1148,-140.8 1148,-140.8 681.95,-140.8 681.95,-140.8"/>
<polygon fill="black" stroke="black" points="681.95,-137.3 671.95,-140.8 681.95,-144.3 681.95,-137.3"/>
</g>
</g>
</svg>
