<?xml version="1.0" encoding="UTF-8" standalone="no"?>
<!DOCTYPE svg PUBLIC "-//W3C//DTD SVG 1.1//EN"
 "http://www.w3.org/Graphics/SVG/1.1/DTD/svg11.dtd">
<!-- Generated by graphviz version 2.47.3 (20210619.1520)
 -->
<!-- Title: dependencies Pages: 1 -->
<svg width="1090pt" height="247pt"
 viewBox="0.00 0.00 1090.00 246.80" xmlns="http://www.w3.org/2000/svg" xmlns:xlink="http://www.w3.org/1999/xlink">
<g id="graph0" class="graph" transform="scale(1 1) rotate(0) translate(4 242.8)">
<title>dependencies</title>
<polygon fill="white" stroke="transparent" points="-4,4 -4,-242.8 1086,-242.8 1086,4 -4,4"/>
<text text-anchor="middle" x="541" y="-8.2" font-family="sans-serif" font-size="14.00">dependencies</text>
<g id="clust1" class="cluster">
<title>cluster_AppModule</title>
<polygon fill="none" stroke="black" stroke-dasharray="1,5" points="8,-32.8 8,-230.8 1074,-230.8 1074,-32.8 8,-32.8"/>
</g>
<g id="clust2" class="cluster">
<title>cluster_AppModule_declarations</title>
<polygon fill="none" stroke="black" points="168,-40.8 168,-92.8 1066,-92.8 1066,-40.8 168,-40.8"/>
</g>
<g id="clust9" class="cluster">
<title>cluster_AppModule_imports</title>
<polygon fill="none" stroke="black" points="16,-40.8 16,-92.8 160,-92.8 160,-40.8 16,-40.8"/>
</g>
<g id="clust11" class="cluster">
<title>cluster_AppModule_bootstrap</title>
<polygon fill="none" stroke="black" points="493,-170.8 493,-222.8 617,-222.8 617,-170.8 493,-170.8"/>
</g>
<!-- AppComponent -->
<g id="node1" class="node">
<title>AppComponent</title>
<polygon fill="#ffffb3" stroke="black" points="1057.94,-84.8 952.06,-84.8 952.06,-48.8 1057.94,-48.8 1057.94,-84.8"/>
<text text-anchor="middle" x="1005" y="-62.6" font-family="Times,serif" font-size="14.00">AppComponent</text>
</g>
<!-- AppModule -->
<g id="node7" class="node">
<title>AppModule</title>
<polygon fill="#8dd3c7" stroke="black" points="596.66,-149.8 593.66,-153.8 572.66,-153.8 569.66,-149.8 513.34,-149.8 513.34,-113.8 596.66,-113.8 596.66,-149.8"/>
<text text-anchor="middle" x="555" y="-127.6" font-family="Times,serif" font-size="14.00">AppModule</text>
</g>
<!-- AppComponent&#45;&gt;AppModule -->
<g id="edge1" class="edge">
<title>AppComponent&#45;&gt;AppModule</title>
<path fill="none" stroke="black" d="M1005,-85.09C1005,-107.01 1005,-140.8 1005,-140.8 1005,-140.8 606.93,-140.8 606.93,-140.8"/>
<polygon fill="black" stroke="black" points="606.93,-137.3 596.93,-140.8 606.93,-144.3 606.93,-137.3"/>
</g>
<!-- CreateUserComponent -->
<g id="node2" class="node">
<title>CreateUserComponent</title>
<polygon fill="#ffffb3" stroke="black" points="934.29,-84.8 789.71,-84.8 789.71,-48.8 934.29,-48.8 934.29,-84.8"/>
<text text-anchor="middle" x="862" y="-62.6" font-family="Times,serif" font-size="14.00">CreateUserComponent</text>
</g>
<!-- CreateUserComponent&#45;&gt;AppModule -->
<g id="edge2" class="edge">
<title>CreateUserComponent&#45;&gt;AppModule</title>
<path fill="none" stroke="black" d="M862,-84.91C862,-104.14 862,-131.8 862,-131.8 862,-131.8 606.72,-131.8 606.72,-131.8"/>
<polygon fill="black" stroke="black" points="606.72,-128.3 596.72,-131.8 606.72,-135.3 606.72,-128.3"/>
</g>
<!-- DashboardComponent -->
<g id="node3" class="node">
<title>DashboardComponent</title>
<polygon fill="#ffffb3" stroke="black" points="771.97,-84.8 630.03,-84.8 630.03,-48.8 771.97,-48.8 771.97,-84.8"/>
<text text-anchor="middle" x="701" y="-62.6" font-family="Times,serif" font-size="14.00">DashboardComponent</text>
</g>
<!-- DashboardComponent&#45;&gt;AppModule -->
<g id="edge3" class="edge">
<title>DashboardComponent&#45;&gt;AppModule</title>
<path fill="none" stroke="black" d="M701,-84.83C701,-101.2 701,-122.8 701,-122.8 701,-122.8 606.84,-122.8 606.84,-122.8"/>
<polygon fill="black" stroke="black" points="606.84,-119.3 596.84,-122.8 606.84,-126.3 606.84,-119.3"/>
</g>
<!-- LoginComponent -->
<g id="node4" class="node">
<title>LoginComponent</title>
<polygon fill="#ffffb3" stroke="black" points="612.28,-84.8 497.72,-84.8 497.72,-48.8 612.28,-48.8 612.28,-84.8"/>
<text text-anchor="middle" x="555" y="-62.6" font-family="Times,serif" font-size="14.00">LoginComponent</text>
</g>
<!-- LoginComponent&#45;&gt;AppModule -->
<g id="edge4" class="edge">
<title>LoginComponent&#45;&gt;AppModule</title>
<path fill="none" stroke="black" d="M555,-84.91C555,-84.91 555,-103.79 555,-103.79"/>
<polygon fill="black" stroke="black" points="551.5,-103.79 555,-113.79 558.5,-103.79 551.5,-103.79"/>
</g>
<!-- UpdateUserComponent -->
<g id="node5" class="node">
<title>UpdateUserComponent</title>
<polygon fill="#ffffb3" stroke="black" points="480.19,-84.8 331.81,-84.8 331.81,-48.8 480.19,-48.8 480.19,-84.8"/>
<text text-anchor="middle" x="406" y="-62.6" font-family="Times,serif" font-size="14.00">UpdateUserComponent</text>
</g>
<!-- UpdateUserComponent&#45;&gt;AppModule -->
<g id="edge5" class="edge">
<title>UpdateUserComponent&#45;&gt;AppModule</title>
<path fill="none" stroke="black" d="M406,-84.83C406,-101.2 406,-122.8 406,-122.8 406,-122.8 503.1,-122.8 503.1,-122.8"/>
<polygon fill="black" stroke="black" points="503.1,-126.3 513.1,-122.8 503.1,-119.3 503.1,-126.3"/>
</g>
<!-- ViewUserComponent -->
<g id="node6" class="node">
<title>ViewUserComponent</title>
<polygon fill="#ffffb3" stroke="black" points="314.08,-84.8 175.92,-84.8 175.92,-48.8 314.08,-48.8 314.08,-84.8"/>
<text text-anchor="middle" x="245" y="-62.6" font-family="Times,serif" font-size="14.00">ViewUserComponent</text>
</g>
<!-- ViewUserComponent&#45;&gt;AppModule -->
<g id="edge6" class="edge">
<title>ViewUserComponent&#45;&gt;AppModule</title>
<path fill="none" stroke="black" d="M245,-84.91C245,-104.14 245,-131.8 245,-131.8 245,-131.8 503.19,-131.8 503.19,-131.8"/>
<polygon fill="black" stroke="black" points="503.19,-135.3 513.19,-131.8 503.19,-128.3 503.19,-135.3"/>
</g>
<!-- AppComponent  -->
<g id="node9" class="node">
<title>AppComponent </title>
<polygon fill="#80b1d3" stroke="black" points="609.44,-214.8 500.56,-214.8 500.56,-178.8 609.44,-178.8 609.44,-214.8"/>
<text text-anchor="middle" x="555" y="-192.6" font-family="Times,serif" font-size="14.00">AppComponent </text>
</g>
<!-- AppModule&#45;&gt;AppComponent  -->
<g id="edge8" class="edge">
<title>AppModule&#45;&gt;AppComponent </title>
<path fill="none" stroke="black" stroke-dasharray="1,5" d="M555,-149.91C555,-149.91 555,-168.79 555,-168.79"/>
<polygon fill="black" stroke="black" points="551.5,-168.79 555,-178.79 558.5,-168.79 551.5,-168.79"/>
</g>
<!-- AppRoutingModule -->
<g id="node8" class="node">
<title>AppRoutingModule</title>
<polygon fill="#8dd3c7" stroke="black" points="152.27,-84.8 149.27,-88.8 128.27,-88.8 125.27,-84.8 23.73,-84.8 23.73,-48.8 152.27,-48.8 152.27,-84.8"/>
<text text-anchor="middle" x="88" y="-62.6" font-family="Times,serif" font-size="14.00">AppRoutingModule</text>
</g>
<!-- AppRoutingModule&#45;&gt;AppModule -->
<g id="edge7" class="edge">
<title>AppRoutingModule&#45;&gt;AppModule</title>
<path fill="none" stroke="black" d="M88,-85.09C88,-107.01 88,-140.8 88,-140.8 88,-140.8 503.15,-140.8 503.15,-140.8"/>
<polygon fill="black" stroke="black" points="503.15,-144.3 513.15,-140.8 503.15,-137.3 503.15,-144.3"/>
</g>
</g>
</svg>
